<?xml version="1.0" encoding="utf-8"?>
<!-- Generator: Adobe Illustrator 18.0.0, SVG Export Plug-In . SVG Version: 6.00 Build 0)  -->
<!DOCTYPE svg PUBLIC "-//W3C//DTD SVG 1.1//EN" "http://www.w3.org/Graphics/SVG/1.1/DTD/svg11.dtd">
<svg version="1.1" id="Слой_1" xmlns="http://www.w3.org/2000/svg" xmlns:xlink="http://www.w3.org/1999/xlink" x="0px" y="0px"
	 width="2259.226px" height="1619.532px" viewBox="0 0 2259.226 1619.532" enable-background="new 0 0 2259.226 1619.532"
	 xml:space="preserve">
<g>
	<path d="M221.09,1329.192c31.962,0.182,56.819,9.19,74.577,27.035c18.998,19.178,28.498,42.082,28.498,68.718
		c0,26.901-9.677,50.072-29.032,69.516c-17.402,17.403-42.082,26.193-74.043,26.369h-40.486v-191.638H221.09z M204.709,1350.499
		v149.155h16.247c23.792,0,42.483-6.569,56.066-19.709c15.003-15.002,22.507-33.338,22.507-55.001
		c0-21.485-7.503-39.818-22.507-54.999c-13.583-12.962-32.274-19.446-56.066-19.446H204.709z"/>
	<path d="M562.354,1329.192v191.638H538.25v-191.638H562.354z"/>
	<path d="M944.907,1494.727c-19.623,18.823-42.439,28.234-68.451,28.234c-27.879,0-51.429-9.609-70.65-28.832
		c-19.222-19.221-28.831-42.283-28.831-69.185c0-26.636,9.608-49.628,28.831-68.984c19.221-19.352,42.771-29.033,70.65-29.033
		c25.922,0,49.675,9.857,71.246,29.566l-16.78,14.916c-17.578-15.535-35.735-23.306-54.467-23.306
		c-20.421,0-38.068,7.438-52.938,22.307c-14.871,14.872-22.305,33.049-22.305,54.534c0,21.663,7.435,39.908,22.305,54.735
		c14.87,14.826,32.517,22.238,52.938,22.238c17.488,0,32.314-4.881,44.478-14.647v-58.331h23.973V1494.727z"/>
	<path d="M1187.813,1329.192v191.638h-24.104v-191.638H1187.813z"/>
	<path d="M1462.396,1350.101v170.729h-23.972v-170.729h-45.812v-20.909h115.462v20.909H1462.396z"/>
	<path d="M1771.706,1329.192l69.385,191.638h-25.037l-28.898-79.639h-52.071l-29.431,79.639h-25.17l70.314-191.638H1771.706z
		 M1779.564,1420.417l-18.378-50.873l-18.512,50.873H1779.564z"/>
	<path d="M2043.667,1520.829v-191.638h24.105v170.729h68.851v20.909H2043.667z"/>
</g>
<g>
	<rect x="1822.987" y="0" fill="#0C0603" width="35.162" height="35.163"/>
	<rect x="1858.149" y="35.163" fill="#0C0603" width="35.14" height="35.151"/>
	<rect x="1893.289" y="70.314" fill="#0C0603" width="35.174" height="35.162"/>
	<rect x="1928.463" y="105.476" fill="#0C0603" width="35.14" height="35.152"/>
	<rect x="1963.602" y="140.627" fill="#0C0603" width="35.152" height="35.151"/>
	<rect x="1963.602" y="175.779" fill="#0C0603" width="35.152" height="35.162"/>
	<rect x="1963.602" y="210.941" fill="#0C0603" width="35.152" height="35.151"/>
	<rect x="1998.755" y="246.092" fill="#0C0603" width="35.162" height="35.151"/>
	<rect x="1963.602" y="246.092" fill="#0C0603" width="35.152" height="35.151"/>
	<rect x="1998.755" y="281.244" fill="#0C0603" width="35.162" height="35.152"/>
	<rect x="2033.917" y="246.092" fill="#0C0603" width="35.15" height="35.151"/>
	<rect x="2069.067" y="246.092" fill="#0C0603" width="35.163" height="35.151"/>
	<rect x="2069.067" y="281.244" fill="#0C0603" width="35.163" height="35.152"/>
	<rect x="2104.23" y="316.396" fill="#0C0603" width="35.151" height="35.15"/>
	<rect x="2104.23" y="351.546" fill="#0C0603" width="35.151" height="35.163"/>
	<rect x="2104.23" y="386.708" fill="#0C0603" width="35.151" height="35.162"/>
	<rect x="2104.23" y="421.871" fill="#0C0603" width="35.151" height="35.152"/>
	<rect x="2104.23" y="457.022" fill="#0C0603" width="35.151" height="35.151"/>
	<rect x="2069.067" y="457.022" fill="#0C0603" width="35.163" height="35.151"/>
	<rect x="2069.067" y="492.174" fill="#0C0603" width="35.163" height="35.152"/>
	<g>
		<g>
			<path fill="#0C0603" d="M1824.383,0c0,0,48.006,45.058,91.668,97.475c43.938,52.738,78.936,65.814,65.128,87.346
				c-13.842,21.499,4.375,106.164,33.555,103.061c29.188-3.047,46.776-81.218,77.505,10.937c3.203,9.586,8.844,9.231,11.991,17.577
				c27.116,71.954,47.509,110.473,22.751,149.005c-27.649,43.009-44.526,53.757-44.526,53.757s-107.538-86.017-153.616-124.403
				c-46.076-38.41-113.677-52.228-113.677-52.228S1855.113,104.467,1824.383,0"/>
			<path fill="#0C0603" d="M1137.792,321.027c0,0,125.954-23.04,207.35,0c81.418,23.061,184.334,86.016,184.334,86.016
				s-19.957,44.538-73.737,47.608c-53.758,3.091-66.058-10.75-113.655,4.621c-47.619,15.349-64.518,21.498-64.518,21.498
				S1162.359,383.983,1137.792,321.027"/>
			<path fill="#FFFFFF" d="M1505.418,1114.638c0,0,27.649,20.466,56.317,10.238c28.668-10.238,44.016-40.96,44.016-40.96
				l-105.477-47.118L1505.418,1114.638z"/>
			<path fill="#EF63A3" d="M1824.383,0c0,0-18.418,59.896-43.02,164.354c-17.232,73.338-44.517,133.634-44.517,133.634
				s-61.458-12.3-109.065,18.429c-47.606,30.719-96.766,99.824-144.407,121.356c-47.595,21.499-86.016,3.048-127.439,12.29
				c-41.513,9.209-78.37,30.707-78.37,30.707l-129.036-130.564c0,0,46.079,89.098,53.78,119.794
				c7.668,30.728,42.996,47.639,42.996,47.639s-42.996,82.948-46.078,158.181c-3.058,75.278-9.22,133.657,35.318,188.935
				c44.571,55.34,58.391,66.068,58.391,66.068s3.068-62.966,38.408-67.577c35.318-4.619,55.288-3.079,55.288-3.079
				s26.097-39.938,58.368-41.479c32.257-1.508,24.577-4.588,24.577-4.588s19.959-18.43,23.051-59.92
				c3.069-41.469,18.406-58.381,32.236-62.989s19.947-4.608,19.947-4.608s9.22,119.825,95.271,149.003
				c86.007,29.169,98.284,33.801,105.975,53.747c7.668,19.969,16.9,44.549,12.289,75.277c-4.621,30.732-21.499,56.839-21.499,56.839
				s212.16,87.823,327.167-184.312c109.066-258.06,9.209-328.728,9.209-328.728s-86.004-87.547-130.564-124.427
				c-44.526-36.847-110.597-44.516-110.597-44.516S1934.978,118.275,1824.383,0"/>
			<path fill="#FFFFFF" d="M1544.812,686.582c0,0-39.395-2.006-46.587,33.81c-7.146,35.848-8.156,66.556-25.59,84.973
				c-17.407,18.453-66.578,60.441-86.037,54.801c-19.414-5.63-101.331-7.68-97.277,75.268
				c4.125,82.924,69.584,108.943,113.678,103.425c49.147-6.14,66.547-34.84,66.547-34.84s10.25,81.915,125.977,94.237
				c115.705,12.258,178.195-79.576,166.901-164.839c-9.197-69.674-40.47-70.549-105.441-91.173
				C1592.442,821.778,1557.645,781.85,1544.812,686.582"/>
			<path fill="#0F0906" d="M1447.061,812.547c-41.004,1.02-54.268,23.038-55.32,46.079c-1.01,23.06,18.052,39.57,39.972,56.338
				c17.387,13.3,39.904,24.558,39.904,24.558s31.74-25.6,78.858-44.039C1588.309,880.679,1551.706,809.942,1447.061,812.547"/>
			<path fill="#0C0603" d="M1376.391,659.973c-19.736,33.856-33.787,67.609-50.166,100.357
				c-15.514,30.963-11.281,45.035,6.141,53.236c17.396,8.212,27.625,0,40.966-28.657c13.301-28.669,34.788-74.781,46.046-99.338
				C1430.671,660.993,1390.731,635.394,1376.391,659.973"/>
			<path fill="#0C0603" d="M1316.995,666.136c24.655,19.347,26.627,24.578,60.428,43.992c33.777,19.461,69.639,30.741,65.517,45.081
				c-4.101,14.318-9.209,34.821-36.849,21.522c-27.637-13.31-97.807-37.479-117.765-62.468
				C1280.125,704.011,1302.654,654.856,1316.995,666.136"/>
			<path fill="#FFFFFF" d="M1407.653,849.792c1.818,7.979,13.1,12.246,25.256,9.498c12.124-2.737,20.522-11.457,18.695-19.461
				c-1.807-7.989-13.121-12.255-25.244-9.508C1414.225,833.059,1405.837,841.781,1407.653,849.792"/>
			<path fill="#0C0603" d="M1605.751,912.902c0,9.065-7.302,16.378-16.346,16.378c-9.074,0-16.412-7.313-16.412-16.378
				c0-9.043,7.338-16.4,16.412-16.4C1598.449,896.502,1605.751,903.859,1605.751,912.902"/>
			<path fill="#0C0603" d="M1373.332,963.08c0,7.348-5.97,13.322-13.341,13.322c-7.324,0-13.32-5.975-13.32-13.322
				c0-7.356,5.996-13.318,13.32-13.318C1367.362,949.762,1373.332,955.724,1373.332,963.08"/>
			<path fill="#0C0603" d="M1368.192,908.837c0,7.313-5.952,13.287-13.3,13.287c-7.356,0-13.331-5.975-13.331-13.287
				c0-7.38,5.975-13.354,13.331-13.354C1362.24,895.482,1368.192,901.457,1368.192,908.837"/>
			<path fill="#0C0603" d="M1556.626,966.162c0,9.608-7.803,17.41-17.41,17.41c-9.629,0-17.442-7.802-17.442-17.41
				c0-9.63,7.813-17.432,17.442-17.432C1548.823,948.731,1556.626,956.532,1556.626,966.162"/>
			<path fill="#0C0603" d="M1902.277,969.442c-84.632,0-118.774-15.412-142.854-26.241l-2.582-1.173
				c-15.715-6.993-28.402-3.393-41.846,0.441c-9.541,2.737-19.426,5.575-30.143,4.167c-12.479-1.628-20.478-11.16-27.538-19.616
				c-7.28-8.663-12.069-13.894-18.251-12.276c-36.825,9.664-48.66,4.631-50.623,3.536l2.995-5.377l2.68-5.529
				c0.077,0.035,9.862,3.89,41.856-4.521c13.975-3.701,22.906,6.927,30.752,16.302c6.161,7.348,12,14.296,19.725,15.326
				c8.178,1.053,16.435-1.319,25.166-3.823c14.285-4.067,30.441-8.676,50.268,0.199l2.582,1.151
				c29.742,13.375,70.458,31.74,198.275,22.896c131.774-9.142,275.447-9.264,276.889-9.264v12.299
				c-1.407,0-144.684,0.135-276.048,9.232C1940.575,968.744,1920.273,969.442,1902.277,969.442"/>
			<path fill="#0C0603" d="M2152.446,1087.385c-0.131-0.155-17.053-15.725-50.034-27.361c-23.658-8.356-73.116-8.343-120.933-8.311
				c-19.526,0.077-39.729,0.057-57.459-0.597c-66.913-2.239-128.937-17.533-165.883-40.86c-23.903-15.08-56.817-11.813-83.245-9.164
				c-14.641,1.409-27.294,2.705-36.581,0.742c-15.548-3.213-25.234-13.232-33.08-21.299c-5.408-5.619-10.084-10.439-15.004-11.458
				c-11.47-2.284-36.692,2.881-45.437,5.054l-2.97-11.903c3.458-0.864,34.553-8.422,50.822-5.176
				c8.665,1.732,14.871,8.146,21.431,14.906c7.337,7.557,14.905,15.404,26.753,17.885c7.425,1.542,19.214,0.377,32.846-0.997
				c28.313-2.825,63.565-6.305,91.025,11.016c35.185,22.229,94.893,36.803,159.742,38.997c17.489,0.566,36.659,0.609,57.039,0.566
				c48.849,0,99.357-0.068,125.001,9.008c35.651,12.568,53.658,29.29,54.423,29.967L2152.446,1087.385z"/>
			<path fill="#0C0603" d="M1353.342,914.743c-0.277-0.045-27.571-6.993-70.27-7.991l-17.111-0.376
				c-49.201-1.01-123.527-2.517-143.42-9.164c-12.557-4.155-20.755-12.922-26.762-19.296c-2.638-2.857-7.113-7.677-8.478-7.225
				c-2.692,0.789-7.437,6.286-11.28,10.695c-7.603,8.765-15.516,17.82-25.355,16.047c-8.355-1.508-10.715-9.741-12.612-16.324
				c-2.935-10.218-4.587-12.866-11.292-12.278c-18.384,1.772-111.947,9.132-148.583-17.543l7.225-9.93
				c33.789,24.557,129.379,16.28,140.206,15.25c17.766-1.707,21.832,12.589,24.27,21.1c0.764,2.627,1.982,6.98,3.024,7.647
				c2.882,0.342,10.031-7.647,13.841-12.037c5.62-6.481,10.916-12.61,17.066-14.439c8.611-2.581,14.895,4.122,20.977,10.627
				c5.642,6.029,12.035,12.878,21.61,16.068c18.131,6.052,94.308,7.603,139.831,8.534l17.109,0.354
				c44.238,1.02,71.91,8.101,73.084,8.389L1353.342,914.743z"/>
			<path fill="#0C0603" d="M940.282,1026.669c-8.512,0-16.689-0.354-24.313-1.152l-58.38-6.152l1.285-12.211l58.391,6.162
				c56.273,5.893,145.215-13.797,169.152-23.195c21.797-8.487,29.232-4.388,40.559,3.635c1.772,1.285,3.713,2.659,5.939,4.09
				c4.268,2.728,10.252-2.438,18.208-10.072c6.36-6.106,11.892-11.349,18.407-11.349c6.882,0,12.201,5.33,17.808,11.017
				c6.05,6.06,12.255,12.354,19.381,11.523c5.309-0.642,9.344-4.234,13.964-8.388c7.358-6.573,16.534-14.806,32.048-8.634
				c10.018,4.023,13.3,2.061,23.018-3.767c6.174-3.691,13.885-8.301,25.798-12.679c31.761-11.633,58.103-8.598,59.221-8.499
				l-1.486,12.18c-0.253-0.046-24.645-2.716-53.501,7.834c-10.827,4.001-17.974,8.278-23.692,11.726
				c-10.162,6.083-18.229,10.892-33.921,4.599c-8.058-3.193-11.958-0.2-19.283,6.382c-5.396,4.867-11.536,10.383-20.722,11.448
				c-13.078,1.63-22.597-8.046-29.547-15.072c-2.723-2.792-7.334-7.434-9.084-7.434c-1.84,0.255-6.881,5.097-9.896,7.999
				c-8.713,8.325-20.601,19.749-33.346,11.538c-2.402-1.554-4.498-3.025-6.439-4.421c-8.963-6.34-12.31-8.734-28.989-2.207
				C1068.674,1010.256,997.351,1026.669,940.282,1026.669"/>
			<path fill="#EF63A3" d="M1453.178,1023.476c0,0-37.878,54.278-49.138,103.448c-11.247,49.149,7.159,124.927,61.448,126.964
				c54.258,2.028,92.156-27.626,81.906-63.498c-10.24-35.814-41.978-58.345-41.978-84.975c0-26.605,5.119-42.997,5.119-42.997
				s-22.53-17.419-30.719-32.79C1471.617,1014.301,1470.61,998.919,1453.178,1023.476"/>
			<path fill="#0C0603" d="M1618.241,1107.121c-42.787,0-93.93-20.177-123.342-49.579c-46.265-46.313-34.984-120.969-34.474-124.093
				l12.146,1.917c-0.145,0.71-10.782,71.665,31.039,113.511c29.278,29.254,73.872,52.438,123.773,47.818
				c15.414-1.386,37.6-9.276,50.112-27.517c14.771-21.532-6.896-22.363,1.738-36.592c1.706-2.803,5.374-7.303,11.9-5.363
				c6.517,1.896,16.879,19.216-3.522,48.882c-12.023,17.563-32.049,28.114-57.857,30.487
				C1625.997,1106.954,1622.13,1107.121,1618.241,1107.121"/>
			<path fill="#0C0603" d="M1400.44,1045.662c-13.808-1.163-24.015-7.226-24.547-7.335c0,0,9.963,1.141,17.255,1.141
				c1.794,0,42.476,0.199,71.478-39.085l9.885,7.291C1449.987,1040.908,1417.195,1045.662,1400.44,1045.662"/>
			<path fill="#090503" d="M1728.637,431.534c-125.879,29.766-216.902,136.218-174.394,292.047
				c42.521,155.865,243.056,235.411,340.032,132.972c96.996-102.45,76.307-229.946,75.223-252.818
				C1968.39,580.827,1889.909,393.369,1728.637,431.534"/>
			<path fill="#FFFFFF" d="M1725.368,518.692c-55.319,5.996-142.788,69.771-107.914,189.642
				c34.887,119.894,148.163,124.304,211.461,83.921c51.198-32.69,55.554-101.375,69.727-130.784
				c14.162-29.423,13.066-20.713-4.365-35.963C1876.832,610.251,1815.816,508.897,1725.368,518.692"/>
			<path fill="#0C0603" d="M1770.037,633.123c-11.935,0-23.181,2.991-33.045,8.212c6.837,6.016,11.259,14.681,11.259,24.51
				c0,18.064-14.65,32.691-32.701,32.691c-5.697,0-10.949-1.585-15.637-4.154c-0.398,3.147-0.719,6.339-0.719,9.586
				c0,39.117,31.703,70.856,70.843,70.856c39.132,0,70.847-31.739,70.847-70.856
				C1840.883,664.839,1809.169,633.123,1770.037,633.123"/>
		</g>
		<g>
			<rect x="1722.695" y="526.948" fill="#FFFFFF" width="35.164" height="35.164"/>
			<rect x="1652.394" y="562.112" fill="#FFFFFF" width="35.162" height="35.149"/>
			<rect x="1687.556" y="562.112" fill="#FFFFFF" width="35.139" height="35.149"/>
			<rect x="1652.394" y="597.261" fill="#FFFFFF" width="35.162" height="35.163"/>
			<rect x="1687.556" y="597.261" fill="#FFFFFF" width="35.139" height="35.163"/>
			<rect x="1722.695" y="562.112" fill="#FFFFFF" width="35.164" height="35.149"/>
			<rect x="1722.695" y="597.261" fill="#FFFFFF" width="35.164" height="35.163"/>
			<rect x="1828.173" y="597.261" fill="#FFFFFF" width="35.151" height="35.163"/>
			<rect x="1757.859" y="562.112" fill="#FFFFFF" width="35.162" height="35.149"/>
			<rect x="1757.859" y="597.261" fill="#FFFFFF" width="35.162" height="35.163"/>
			<rect x="1793.021" y="562.112" fill="#FFFFFF" width="35.152" height="35.149"/>
			<rect x="1793.021" y="597.261" fill="#FFFFFF" width="35.152" height="35.163"/>
			<rect x="1617.244" y="632.424" fill="#FFFFFF" width="35.15" height="35.14"/>
			<rect x="1617.244" y="667.563" fill="#FFFFFF" width="35.15" height="35.162"/>
			<rect x="1652.394" y="667.563" fill="#FFFFFF" width="35.162" height="35.162"/>
			<rect x="1652.394" y="702.726" fill="#FFFFFF" width="35.162" height="35.152"/>
			<rect x="1652.394" y="737.878" fill="#FFFFFF" width="35.162" height="35.164"/>
			<rect x="1722.695" y="773.661" fill="#FFFFFF" width="35.164" height="35.15"/>
			<rect x="1757.859" y="773.661" fill="#FFFFFF" width="35.162" height="35.15"/>
			<rect x="1652.394" y="632.424" fill="#FFFFFF" width="35.162" height="35.14"/>
			<rect x="1687.556" y="632.424" fill="#FFFFFF" width="35.139" height="35.14"/>
		</g>
	</g>
</g>
<g>
	<path d="M1013.454,448.888H744.767v186.517h259.799v111.028H744.767v368.601H624.861V337.86h388.592V448.888z"/>
	<path d="M519.894,1012.04c-26.962,6.445-49.169,7.516-63.686,7.516c-164.32,0-278.673-124.35-278.673-289.779
		c0-170.98,109.921-296.436,278.673-296.436c15.913,0,37.977,0.952,63.686,6.416V326.02c-18.717-2.36-39.029-3.707-61.459-3.707
		c-106.584,0-199.848,25.543-280.901,103.26C84.271,514.393,53.187,628.744,53.187,729.776
		c0,126.577,48.849,220.938,124.348,293.112c99.926,94.371,208.725,107.693,275.35,107.693c24.313,0,46.586-1.956,67.01-5.082
		V1012.04z"/>
</g>
</svg>
